<?plantuml 1.2026.1?><svg xmlns="http://www.w3.org/2000/svg" xmlns:xlink="http://www.w3.org/1999/xlink" contentStyleType="text/css" data-diagram-type="CLASS" height="1203.125px" preserveAspectRatio="none" style="width:1775px;height:1203px;background:#FFFFFF;" version="1.1" viewBox="0 0 1775 1203" width="1775px" zoomAndPan="magnify"><title>Arquitectura en capas (UML 2 - layered architecture)</title><defs/><g><g class="title" data-source-line="1"><text fill="#000000" font-family="sans-serif" font-size="21.875" font-weight="bold" lengthAdjust="spacing" textLength="653.0777" x="550.7911" y="35.9299">Arquitectura en capas (UML 2 - layered architecture)</text></g><!--class C1--><g class="entity" data-qualified-name="C1" data-source-line="17" id="ent0002"><rect fill="#FEF9C3" height="138.8428" rx="3.9063" ry="3.9063" style="stroke:#A16207;stroke-width:0.7813;" width="804.8721" x="513.7969" y="69.2139"/><rect fill="#FACC15" height="62.915" rx="3.9063" ry="3.9063" style="stroke:#FACC15;stroke-width:0.7813;" width="804.8721" x="513.7969" y="69.2139"/><rect fill="#FACC15" height="3.9063" style="stroke:#FACC15;stroke-width:0.7813;" width="804.8721" x="513.7969" y="128.2227"/><rect fill="none" height="138.8428" rx="3.9063" ry="3.9063" style="stroke:#A16207;stroke-width:0.7813;" width="804.8721" x="513.7969" y="69.2139"/><ellipse cx="751.0733" cy="100.6714" fill="#ADD1B2" rx="17.1875" ry="17.1875" style="stroke:#181818;stroke-width:1.5625;"/><path d="M755.712,109.4849 Q754.8087,109.9487 753.8077,110.1685 Q752.8067,110.4126 751.7081,110.4126 Q747.8018,110.4126 745.7267,107.8491 Q743.6759,105.2612 743.6759,100.3784 Q743.6759,95.4956 745.7267,92.9077 Q747.8018,90.3198 751.7081,90.3198 Q752.8067,90.3198 753.8077,90.564 Q754.8331,90.8081 755.712,91.272 L755.712,95.52 Q754.7354,94.6167 753.8077,94.2017 Q752.88,93.7622 751.9034,93.7622 Q749.8038,93.7622 748.7296,95.4468 Q747.6554,97.1069 747.6554,100.3784 Q747.6554,103.6499 748.7296,105.3345 Q749.8038,106.9946 751.9034,106.9946 Q752.88,106.9946 753.8077,106.5796 Q754.7354,106.1401 755.712,105.2368 L755.712,109.4849 Z " fill="#000000"/><text fill="#000000" font-family="sans-serif" font-size="18.75" font-style="italic" lengthAdjust="spacing" textLength="69.9829" x="906.6321" y="94.4305">&#171;layer&#187;</text><text fill="#111111" font-family="sans-serif" font-size="21.875" lengthAdjust="spacing" textLength="317.038" x="783.1046" y="119.1574">Capa 1 &#183; Presentaci&#243;n / HTTP</text><line style="stroke:#A16207;stroke-width:0.7813;" x1="515.3594" x2="1317.1065" y1="132.1289" y2="132.1289"/><text fill="#111111" font-family="sans-serif" font-size="21.875" lengthAdjust="spacing" textLength="589.3539" x="523.1719" y="158.6838">shelly-front : routes/ &#183; components/ &#183; features/*/pages</text><line style="stroke:#A16207;stroke-width:0.7813;" x1="515.3594" x2="1317.1065" y1="170.0928" y2="170.0928"/><text fill="#111111" font-family="sans-serif" font-size="21.875" lengthAdjust="spacing" textLength="786.1221" x="523.1719" y="196.6476">shelly-back  : api/app &#183; routes.ts &#183; middleware (auth, requirePermission)</text></g><!--class C2--><g class="entity" data-qualified-name="C2" data-source-line="22" id="ent0003"><rect fill="#FEF9C3" height="138.8428" rx="3.9063" ry="3.9063" style="stroke:#A16207;stroke-width:0.7813;" width="830.5069" x="250.9844" y="328.3701"/><rect fill="#FACC15" height="62.915" rx="3.9063" ry="3.9063" style="stroke:#FACC15;stroke-width:0.7813;" width="830.5069" x="250.9844" y="328.3701"/><rect fill="#FACC15" height="3.9063" style="stroke:#FACC15;stroke-width:0.7813;" width="830.5069" x="250.9844" y="387.3789"/><rect fill="none" height="138.8428" rx="3.9063" ry="3.9063" style="stroke:#A16207;stroke-width:0.7813;" width="830.5069" x="250.9844" y="328.3701"/><ellipse cx="554.8525" cy="359.8276" fill="#ADD1B2" rx="17.1875" ry="17.1875" style="stroke:#181818;stroke-width:1.5625;"/><path d="M559.4911,368.6411 Q558.5878,369.105 557.5869,369.3247 Q556.5859,369.5688 555.4872,369.5688 Q551.581,369.5688 549.5058,367.0054 Q547.455,364.4175 547.455,359.5347 Q547.455,354.6519 549.5058,352.064 Q551.581,349.4761 555.4872,349.4761 Q556.5859,349.4761 557.5869,349.7202 Q558.6122,349.9644 559.4911,350.4282 L559.4911,354.6763 Q558.5146,353.7729 557.5869,353.3579 Q556.6591,352.9185 555.6826,352.9185 Q553.5829,352.9185 552.5087,354.603 Q551.4345,356.2632 551.4345,359.5347 Q551.4345,362.8062 552.5087,364.4907 Q553.5829,366.1509 555.6826,366.1509 Q556.6591,366.1509 557.5869,365.7358 Q558.5146,365.2964 559.4911,364.3931 L559.4911,368.6411 Z " fill="#000000"/><text fill="#000000" font-family="sans-serif" font-size="18.75" font-style="italic" lengthAdjust="spacing" textLength="69.9829" x="656.637" y="353.5868">&#171;layer&#187;</text><text fill="#111111" font-family="sans-serif" font-size="21.875" lengthAdjust="spacing" textLength="209.4894" x="586.8837" y="378.3137">Capa 2 &#183; Aplicaci&#243;n</text><line style="stroke:#A16207;stroke-width:0.7813;" x1="252.5469" x2="1079.9288" y1="391.2852" y2="391.2852"/><line style="stroke:#A16207;stroke-width:0.7813;" x1="252.5469" x2="1079.9288" y1="403.7852" y2="403.7852"/><text fill="#111111" font-family="sans-serif" font-size="21.875" lengthAdjust="spacing" textLength="811.7569" x="260.3594" y="430.34">shelly-front : hooks (TanStack Query) &#183; providers &#183; router &#183; ProtectedRoute</text><text fill="#111111" font-family="sans-serif" font-size="21.875" lengthAdjust="spacing" textLength="640.5594" x="260.3594" y="455.8039">shelly-back  : handlers.ts &#183; error-handler &#183; openapi (Scalar)</text></g><!--class C3--><g class="entity" data-qualified-name="C3" data-source-line="27" id="ent0004"><rect fill="#FEF9C3" height="138.8428" rx="3.9063" ry="3.9063" style="stroke:#A16207;stroke-width:0.7813;" width="716.8488" x="10.9375" y="587.5264"/><rect fill="#FACC15" height="62.915" rx="3.9063" ry="3.9063" style="stroke:#FACC15;stroke-width:0.7813;" width="716.8488" x="10.9375" y="587.5264"/><rect fill="#FACC15" height="3.9063" style="stroke:#FACC15;stroke-width:0.7813;" width="716.8488" x="10.9375" y="646.5352"/><rect fill="none" height="138.8428" rx="3.9063" ry="3.9063" style="stroke:#A16207;stroke-width:0.7813;" width="716.8488" x="10.9375" y="587.5264"/><ellipse cx="268.4013" cy="618.9839" fill="#ADD1B2" rx="17.1875" ry="17.1875" style="stroke:#181818;stroke-width:1.5625;"/><path d="M273.04,627.7974 Q272.1367,628.2612 271.1357,628.481 Q270.1347,628.7251 269.0361,628.7251 Q265.1299,628.7251 263.0547,626.1616 Q261.0039,623.5737 261.0039,618.6909 Q261.0039,613.8081 263.0547,611.2202 Q265.1299,608.6323 269.0361,608.6323 Q270.1347,608.6323 271.1357,608.8765 Q272.1611,609.1206 273.04,609.5845 L273.04,613.8325 Q272.0634,612.9292 271.1357,612.5142 Q270.208,612.0747 269.2314,612.0747 Q267.1318,612.0747 266.0576,613.7593 Q264.9834,615.4194 264.9834,618.6909 Q264.9834,621.9624 266.0576,623.647 Q267.1318,625.3071 269.2314,625.3071 Q270.208,625.3071 271.1357,624.8921 Q272.0634,624.4526 273.04,623.5493 L273.04,627.7974 Z " fill="#000000"/><text fill="#000000" font-family="sans-serif" font-size="18.75" font-style="italic" lengthAdjust="spacing" textLength="69.9829" x="359.761" y="612.743">&#171;layer&#187;</text><text fill="#111111" font-family="sans-serif" font-size="21.875" lengthAdjust="spacing" textLength="188.6398" x="300.4326" y="637.4699">Capa 3 &#183; Dominio</text><line style="stroke:#A16207;stroke-width:0.7813;" x1="12.5" x2="726.2238" y1="650.4414" y2="650.4414"/><text fill="#111111" font-family="sans-serif" font-size="21.875" lengthAdjust="spacing" textLength="633.0399" x="20.3125" y="676.9963">shelly-front : features/*/types &#183; features/*/utils &#183; constants</text><line style="stroke:#A16207;stroke-width:0.7813;" x1="12.5" x2="726.2238" y1="688.4053" y2="688.4053"/><text fill="#111111" font-family="sans-serif" font-size="21.875" lengthAdjust="spacing" textLength="698.0988" x="20.3125" y="714.9601">shelly-back  : services.ts (reglas de negocio) &#183; schemas.ts (Zod)</text></g><!--class C4--><g class="entity" data-qualified-name="C4" data-source-line="32" id="ent0005"><rect fill="#FEF9C3" height="138.8428" rx="3.9063" ry="3.9063" style="stroke:#A16207;stroke-width:0.7813;" width="880.6763" x="200.9062" y="846.6826"/><rect fill="#FACC15" height="62.915" rx="3.9063" ry="3.9063" style="stroke:#FACC15;stroke-width:0.7813;" width="880.6763" x="200.9062" y="846.6826"/><rect fill="#FACC15" height="3.9063" style="stroke:#FACC15;stroke-width:0.7813;" width="880.6763" x="200.9062" y="905.6914"/><rect fill="none" height="138.8428" rx="3.9063" ry="3.9063" style="stroke:#A16207;stroke-width:0.7813;" width="880.6763" x="200.9062" y="846.6826"/><ellipse cx="461.5264" cy="878.1401" fill="#ADD1B2" rx="17.1875" ry="17.1875" style="stroke:#181818;stroke-width:1.5625;"/><path d="M466.165,886.9536 Q465.2617,887.4175 464.2607,887.6372 Q463.2598,887.8813 462.1611,887.8813 Q458.2549,887.8813 456.1797,885.3179 Q454.1289,882.73 454.1289,877.8472 Q454.1289,872.9644 456.1797,870.3765 Q458.2549,867.7886 462.1611,867.7886 Q463.2598,867.7886 464.2607,868.0327 Q465.2861,868.2769 466.165,868.7407 L466.165,872.9888 Q465.1885,872.0854 464.2607,871.6704 Q463.333,871.231 462.3564,871.231 Q460.2568,871.231 459.1826,872.9155 Q458.1084,874.5757 458.1084,877.8472 Q458.1084,881.1187 459.1826,882.8032 Q460.2568,884.4634 462.3564,884.4634 Q463.333,884.4634 464.2607,884.0483 Q465.1885,883.6089 466.165,882.7056 L466.165,886.9536 Z " fill="#000000"/><text fill="#000000" font-family="sans-serif" font-size="18.75" font-style="italic" lengthAdjust="spacing" textLength="69.9829" x="631.6436" y="871.8993">&#171;layer&#187;</text><text fill="#111111" font-family="sans-serif" font-size="21.875" lengthAdjust="spacing" textLength="346.1548" x="493.5576" y="896.6262">Capa 4 &#183; Infraestructura / Datos</text><line style="stroke:#A16207;stroke-width:0.7813;" x1="202.4687" x2="1080.02" y1="909.5977" y2="909.5977"/><line style="stroke:#A16207;stroke-width:0.7813;" x1="202.4687" x2="1080.02" y1="922.0977" y2="922.0977"/><text fill="#111111" font-family="sans-serif" font-size="21.875" lengthAdjust="spacing" textLength="861.9263" x="210.2812" y="948.6525">shelly-front : api-client (Axios + interceptor) &#183; config/auth (oidc-client-ts) &#183; i18n</text><text fill="#111111" font-family="sans-serif" font-size="21.875" lengthAdjust="spacing" textLength="769.1711" x="210.2812" y="974.1164">shelly-back  : repository.ts &#183; db/schema/* (Drizzle) &#183; db/index (pg Pool)</text></g><!--class DB--><g class="entity" data-qualified-name="DB" data-source-line="37" id="ent0006"><rect fill="#BFDBFE" height="87.915" rx="3.9063" ry="3.9063" style="stroke:#A16207;stroke-width:0.7813;" width="210.965" x="535.75" y="1105.8232"/><ellipse cx="559.1875" cy="1137.2808" fill="#ADD1B2" rx="17.1875" ry="17.1875" style="stroke:#181818;stroke-width:1.5625;"/><path d="M563.8262,1146.0942 Q562.9229,1146.5581 561.9219,1146.7778 Q560.9209,1147.022 559.8223,1147.022 Q555.916,1147.022 553.8408,1144.4585 Q551.79,1141.8706 551.79,1136.9878 Q551.79,1132.105 553.8408,1129.5171 Q555.916,1126.9292 559.8223,1126.9292 Q560.9209,1126.9292 561.9219,1127.1733 Q562.9473,1127.4175 563.8262,1127.8813 L563.8262,1132.1294 Q562.8496,1131.2261 561.9219,1130.811 Q560.9941,1130.3716 560.0176,1130.3716 Q557.918,1130.3716 556.8438,1132.0562 Q555.7695,1133.7163 555.7695,1136.9878 Q555.7695,1140.2593 556.8438,1141.9438 Q557.918,1143.604 560.0176,1143.604 Q560.9941,1143.604 561.9219,1143.189 Q562.8496,1142.7495 563.8262,1141.8462 L563.8262,1146.0942 Z " fill="#000000"/><text fill="#000000" font-family="sans-serif" font-size="18.75" font-style="italic" lengthAdjust="spacing" textLength="109.8724" x="606.6088" y="1131.0399">&#171;database&#187;</text><text fill="#111111" font-family="sans-serif" font-size="21.875" lengthAdjust="spacing" textLength="160.965" x="581.0625" y="1155.7668">PostgreSQL 18</text><line style="stroke:#A16207;stroke-width:0.7813;" x1="537.3125" x2="745.1525" y1="1168.7383" y2="1168.7383"/><line style="stroke:#A16207;stroke-width:0.7813;" x1="537.3125" x2="745.1525" y1="1181.2383" y2="1181.2383"/></g><!--class COG--><g class="entity" data-qualified-name="COG" data-source-line="38" id="ent0007"><rect fill="#FDE68A" height="87.915" rx="3.9063" ry="3.9063" style="stroke:#A16207;stroke-width:0.7813;" width="191.8777" x="906.2344" y="1105.8232"/><ellipse cx="929.6719" cy="1137.2808" fill="#ADD1B2" rx="17.1875" ry="17.1875" style="stroke:#181818;stroke-width:1.5625;"/><path d="M934.3105,1146.0942 Q933.4072,1146.5581 932.4063,1146.7778 Q931.4053,1147.022 930.3066,1147.022 Q926.4004,1147.022 924.3252,1144.4585 Q922.2744,1141.8706 922.2744,1136.9878 Q922.2744,1132.105 924.3252,1129.5171 Q926.4004,1126.9292 930.3066,1126.9292 Q931.4053,1126.9292 932.4063,1127.1733 Q933.4316,1127.4175 934.3105,1127.8813 L934.3105,1132.1294 Q933.334,1131.2261 932.4063,1130.811 Q931.4785,1130.3716 930.502,1130.3716 Q928.4023,1130.3716 927.3281,1132.0562 Q926.2539,1133.7163 926.2539,1136.9878 Q926.2539,1140.2593 927.3281,1141.9438 Q928.4023,1143.604 930.502,1143.604 Q931.4785,1143.604 932.4063,1143.189 Q933.334,1142.7495 934.3105,1141.8462 L934.3105,1146.0942 Z " fill="#000000"/><text fill="#000000" font-family="sans-serif" font-size="18.75" font-style="italic" lengthAdjust="spacing" textLength="100.7538" x="972.1089" y="1131.0399">&#171;external&#187;</text><text fill="#111111" font-family="sans-serif" font-size="21.875" lengthAdjust="spacing" textLength="141.8777" x="951.5469" y="1155.7668">AWS Cognito</text><line style="stroke:#A16207;stroke-width:0.7813;" x1="907.7969" x2="1096.5496" y1="1168.7383" y2="1168.7383"/><line style="stroke:#A16207;stroke-width:0.7813;" x1="907.7969" x2="1096.5496" y1="1181.2383" y2="1181.2383"/></g><g class="entity" data-qualified-name="GMN15" data-source-line="50" id="ent0016"><path d="M1373.1406,83.5264 L1373.1406,132.3857 L1319.3438,138.6357 L1373.1406,144.8857 L1373.1406,193.7314 A0,0 0 0 0 1373.1406,193.7314 L1765.5974,193.7314 A0,0 0 0 0 1765.5974,193.7314 L1765.5974,99.1514 L1749.9724,83.5264 L1373.1406,83.5264 A0,0 0 0 0 1373.1406,83.5264" fill="#FEFFDD" style="stroke:#181818;stroke-width:0.7813;"/><path d="M1749.9724,83.5264 L1749.9724,99.1514 L1765.5974,99.1514 L1749.9724,83.5264" fill="#FEFFDD" style="stroke:#181818;stroke-width:0.7813;"/><text fill="#000000" font-family="sans-serif" font-size="20.3125" lengthAdjust="spacing" textLength="359.6443" x="1382.5156" y="110.1934">La integraci&#243;n HTTPS + Bearer JWT</text><text fill="#000000" font-family="sans-serif" font-size="20.3125" lengthAdjust="spacing" textLength="318.3647" x="1382.5156" y="133.8384">ocurre entre la capa 4 del front</text><text fill="#000000" font-family="sans-serif" font-size="20.3125" lengthAdjust="spacing" textLength="319.9913" x="1382.5156" y="157.4834">(api-client) y la capa 1 del back</text><text fill="#000000" font-family="sans-serif" font-size="20.3125" lengthAdjust="spacing" textLength="251.268" x="1382.5156" y="181.1284">(Express + middleware).</text></g><!--link C1 to C2--><g class="link" data-entity-1="ent0002" data-entity-2="ent0003" data-link-type="dependency" data-source-line="40" id="lnk8"><path codeLine="40" d="M849.2344,208.8076 C813.2344,245.6826 775.5021,284.3181 739.5334,321.1618" fill="none" id="C1-to-C2" style="stroke:#181818;stroke-width:1.5625;stroke-dasharray:10.9375,10.9375;"/><polygon fill="#181818" points="732.9844,327.8701,747.2801,322.1737,738.4419,322.2799,738.3357,313.4417,732.9844,327.8701" style="stroke:#181818;stroke-width:1.5625;"/><text fill="#000000" font-family="sans-serif" font-size="20.3125" lengthAdjust="spacing" textLength="93.3006" x="800.6094" y="275.3496">&#171;access&#187;</text></g><!--link C2 to C3--><g class="link" data-entity-1="ent0003" data-entity-2="ent0004" data-link-type="dependency" data-source-line="41" id="lnk9"><path codeLine="41" d="M586.6875,467.9639 C543.9063,504.8389 498.4431,544.0597 455.7243,580.9034" fill="none" id="C2-to-C3" style="stroke:#181818;stroke-width:1.5625;stroke-dasharray:10.9375,10.9375;"/><polygon fill="#181818" points="448.625,587.0264,463.3559,582.5748,454.5411,581.9239,455.192,573.1091,448.625,587.0264" style="stroke:#181818;stroke-width:1.5625;"/><text fill="#000000" font-family="sans-serif" font-size="20.3125" lengthAdjust="spacing" textLength="93.3006" x="528.7344" y="534.5059">&#171;access&#187;</text></g><!--link C2 to C4--><g class="link" data-entity-1="ent0003" data-entity-2="ent0005" data-link-type="dependency" data-source-line="42" id="lnk10"><path codeLine="42" d="M707.5938,467.7295 C726.125,502.3076 745.9063,545.7295 755.2969,587.5264 C768.8281,647.7295 771.9063,666.9326 755.2969,726.3701 C743.3281,769.2295 723.9404,804.3195 700.5811,838.257" fill="none" id="C2-to-C4" style="stroke:#181818;stroke-width:1.5625;stroke-dasharray:10.9375,10.9375;"/><polygon fill="#181818" points="695.2656,845.9795,708.3871,837.9394,699.6952,839.5441,698.0904,830.8521,695.2656,845.9795" style="stroke:#181818;stroke-width:1.5625;"/><text fill="#000000" font-family="sans-serif" font-size="20.3125" lengthAdjust="spacing" textLength="93.3006" x="769.3594" y="664.084">&#171;access&#187;</text></g><!--link C3 to C4--><g class="link" data-entity-1="ent0004" data-entity-2="ent0005" data-link-type="dependency" data-source-line="43" id="lnk11"><path codeLine="43" d="M442.2188,727.1201 C481.3906,763.9951 522.7061,802.9117 561.8311,839.7555" fill="none" id="C3-to-C4" style="stroke:#181818;stroke-width:1.5625;stroke-dasharray:10.9375,10.9375;"/><polygon fill="#181818" points="568.6563,846.1826,562.7034,831.9918,562.9687,840.8266,554.1338,841.0919,568.6563,846.1826" style="stroke:#181818;stroke-width:1.5625;"/><text fill="#000000" font-family="sans-serif" font-size="20.3125" lengthAdjust="spacing" textLength="93.3006" x="516.2344" y="793.6621">&#171;access&#187;</text></g><!--link C4 to DB--><g class="link" data-entity-1="ent0005" data-entity-2="ent0006" data-link-type="dependency" data-source-line="45" id="lnk12"><path codeLine="45" d="M641.2344,986.2139 C641.2344,1024.9795 641.2344,1062.8389 641.2344,1096.292" fill="none" id="C4-to-DB" style="stroke:#181818;stroke-width:1.5625;stroke-dasharray:10.9375,10.9375;"/><polygon fill="#181818" points="641.2344,1105.667,647.4844,1091.6045,641.2344,1097.8545,634.9844,1091.6045,641.2344,1105.667" style="stroke:#181818;stroke-width:1.5625;"/><text fill="#000000" font-family="sans-serif" font-size="20.3125" lengthAdjust="spacing" textLength="121.6469" x="642.7969" y="1052.8028">&#171;JDBC/SQL&#187;</text></g><!--link C4 to COG--><g class="link" data-entity-1="ent0005" data-entity-2="ent0007" data-link-type="dependency" data-source-line="46" id="lnk13"><path codeLine="46" d="M748.5469,986.2139 C809.0156,1024.8389 874.7872,1066.854 927.0997,1100.2758" fill="none" id="C4-to-COG" style="stroke:#181818;stroke-width:1.5625;stroke-dasharray:10.9375,10.9375;"/><polygon fill="#181818" points="935,1105.3232,926.5145,1092.4853,928.4164,1101.1171,919.7847,1103.019,935,1105.3232" style="stroke:#181818;stroke-width:1.5625;"/><text fill="#000000" font-family="sans-serif" font-size="20.3125" lengthAdjust="spacing" textLength="76.6579" x="855.2969" y="1052.8028">&#171;OIDC&#187;</text></g><!--link C1 to COG--><g class="link" data-entity-1="ent0002" data-entity-2="ent0007" data-link-type="dependency" data-source-line="47" id="lnk14"><path codeLine="47" d="M1040.4531,208.7451 C1102.5625,252.9326 1164.6719,316.9482 1164.6719,396.2295 C1164.6719,396.2295 1164.6719,396.2295 1164.6719,917.6514 C1164.6719,994.0576 1111.3152,1056.7132 1064.1746,1098.8851" fill="none" id="C1-to-COG" style="stroke:#181818;stroke-width:1.5625;stroke-dasharray:10.9375,10.9375;"/><polygon fill="#181818" points="1057.1875,1105.1357,1071.8353,1100.4178,1063.0101,1099.9269,1063.5011,1091.1017,1057.1875,1105.1357" style="stroke:#181818;stroke-width:1.5625;"/><text fill="#000000" font-family="sans-serif" font-size="20.3125" lengthAdjust="spacing" textLength="127.4788" x="1166.2344" y="664.084">&#171;JWT verify&#187;</text></g><?plantuml-src VLJ1Rjj64BtpAmR9XKehqxISr0a20H9bDGvSHAaS1CXjjHnH2wzscDcbOxdeL_NGU_jZdIKPMxK2wo1WtxmPpdipky44Yp3Xhuq9g4F32j21LhNoa7xwxH9EO0XMxP2n1CLwqzDma2J-shXQiTf2MHl8Nnxl8NwZIlfcN0LhPJtkHRHLtaz2OBDg0bveSajpXt3yc09_901JfQyhfiQL1LbYU3u_dxykHZ52N2Btw2H_TNByYw3lK0bwc3KfYlobnEVamZBiHFAAR2d0VICFaTegunw7-a9v-ql-J990DGIICY6G661OR37aagHh_baX5a8E__mD2qQFBYXj_ltBGGRlhguMpq3yBN9u-xRrTZnkrVeDMhiRhba-26z050JqMQoXQLkJaohTSOqgpi1dBx9QLUWVSbSY7IHNrIPJTHt9NPcZuEDXQyhIuZV52AbgmkPdO9JPCowGjyPxaJ28ylPLdCJ4IMsDxZHqpPyytVo6w5fMw4gvPOWzVMoGTuDOgMQwCJ8bVzySTpPHN2qiVu_GeQADSj8vVnU2pCJ37em0rUX4DQHBhQpY0nMZI9hHrZX3dOBHqmhsJ0wx6lqZuvjWhEzcutnGCfh3dZtoZT6T-IbZ9Ur0YU2m8cseTSFh3MvLn_X2vK7Rfv5quTQiq0TkkYkQmKm5yfsCqwTbY2T3ROti3gIJMqCUVWBZn7IDTI0Uz1BMfihYGa1AfjHznZ3uDcxoCtUeZh4cRwJ6hfz9kSewETaBI6Tixkui3lg0SINUGbfNi22o-p8Nv4F5kFnu2VbPAsas5Kcb2cgbF8ggvzFvR3e__vum-Ro4WYedd-uS-F2hyF5MD3bb8ty-EtzrDaaIkM57H-Eugs-4eRICme_7YPnRUFHZ-FGHFFeXd0WGSMasukzdqo8J3J6X2yIsOkJ3nQo8QFu_zFtdAxX1DkjThELazu5DjGb0QtaOnEnBrOwfulxXYC_6KcOtHRcy398l9D8DorMMKSc_LUt3BIjJeeLs_a997nPW0BjxKjwIuYWZv_osbgsEg_7mG0oE4dGbnDQI_m00?></g></svg>