<?plantuml 1.2026.1?><svg xmlns="http://www.w3.org/2000/svg" xmlns:xlink="http://www.w3.org/1999/xlink" contentStyleType="text/css" data-diagram-type="DESCRIPTION" height="1767.1875px" preserveAspectRatio="none" style="width:2395px;height:1767px;background:#FFFFFF;" version="1.1" viewBox="0 0 2395 1767" width="2395.3125px" zoomAndPan="magnify"><title>Diagrama de componentes (UML 2 - lollipop / socket)</title><defs/><g><g class="title" data-source-line="1"><text fill="#000000" font-family="sans-serif" font-size="21.875" font-weight="bold" lengthAdjust="spacing" textLength="654.3488" x="860.287" y="35.9299">Diagrama de componentes (UML 2 - lollipop / socket)</text></g><!--cluster shelly-front--><g class="cluster" data-qualified-name="shelly-front" data-source-line="22" id="ent0002"><path d="M1419.5313,67.6514 L1564.2212,67.6514 A5.8594,5.8594 0 0 1 1568.1274,71.5576 L1579.0649,102.4902 L1858.5938,102.4902 A3.9063,3.9063 0 0 1 1862.5,106.3965 L1862.5,841.3545 A3.9063,3.9063 0 0 1 1858.5938,845.2607 L1419.5313,845.2607 A3.9063,3.9063 0 0 1 1415.625,841.3545 L1415.625,71.5576 A3.9063,3.9063 0 0 1 1419.5313,67.6514" fill="#FEF9C3" style="stroke:#A16207;stroke-width:2.3438;"/><line style="stroke:#A16207;stroke-width:2.3438;" x1="1415.625" x2="1579.0649" y1="102.4902" y2="102.4902"/><text fill="#000000" font-family="sans-serif" font-size="21.875" font-weight="bold" lengthAdjust="spacing" textLength="143.1274" x="1421.875" y="91.0812">shelly-front</text></g><!--cluster shelly-back--><g class="cluster" data-qualified-name="shelly-back" data-source-line="33" id="ent0010"><path d="M13.2813,1043.6982 L154.5425,1043.6982 A5.8594,5.8594 0 0 1 158.4488,1047.6045 L169.3863,1078.5371 L1977.3438,1078.5371 A3.9063,3.9063 0 0 1 1981.25,1082.4434 L1981.25,1574.9326 A3.9063,3.9063 0 0 1 1977.3438,1578.8389 L13.2813,1578.8389 A3.9063,3.9063 0 0 1 9.375,1574.9326 L9.375,1047.6045 A3.9063,3.9063 0 0 1 13.2813,1043.6982" fill="#FEF9C3" style="stroke:#A16207;stroke-width:2.3438;"/><line style="stroke:#A16207;stroke-width:2.3438;" x1="9.375" x2="169.3863" y1="1078.5371" y2="1078.5371"/><text fill="#000000" font-family="sans-serif" font-size="21.875" font-weight="bold" lengthAdjust="spacing" textLength="139.6988" x="15.625" y="1067.1281">shelly-back</text></g><!--entity Router--><g class="entity" data-qualified-name="shelly-front.Router" data-source-line="23" id="ent0003"><rect fill="#E0E7FF" height="97.8027" rx="3.9063" ry="3.9063" style="stroke:#4338CA;stroke-width:0.7813;" width="311.1786" x="1483.4688" y="122.3389"/><rect fill="#E0E7FF" height="15.625" style="stroke:#4338CA;stroke-width:0.7813;" width="23.4375" x="1763.3973" y="130.1514"/><rect fill="#E0E7FF" height="3.125" style="stroke:#4338CA;stroke-width:0.7813;" width="6.25" x="1760.2723" y="133.2764"/><rect fill="#E0E7FF" height="3.125" style="stroke:#4338CA;stroke-width:0.7813;" width="6.25" x="1760.2723" y="139.5264"/><text fill="#000000" font-family="sans-serif" font-size="21.875" lengthAdjust="spacing" textLength="116.2109" x="1506.9063" y="173.8937">AppRouter</text><text fill="#000000" font-family="sans-serif" font-size="21.875" lengthAdjust="spacing" textLength="248.6786" x="1506.9063" y="199.3576">&#171;react-router-dom v7&#187;</text></g><!--entity Prov--><g class="entity" data-qualified-name="shelly-front.Prov" data-source-line="24" id="ent0004"><rect fill="#E0E7FF" height="97.8027" rx="3.9063" ry="3.9063" style="stroke:#4338CA;stroke-width:0.7813;" width="396.5958" x="1440.7656" y="313.8857"/><rect fill="#E0E7FF" height="15.625" style="stroke:#4338CA;stroke-width:0.7813;" width="23.4375" x="1806.1114" y="321.6982"/><rect fill="#E0E7FF" height="3.125" style="stroke:#4338CA;stroke-width:0.7813;" width="6.25" x="1802.9864" y="324.8232"/><rect fill="#E0E7FF" height="3.125" style="stroke:#4338CA;stroke-width:0.7813;" width="6.25" x="1802.9864" y="331.0732"/><text fill="#000000" font-family="sans-serif" font-size="21.875" lengthAdjust="spacing" textLength="102.3254" x="1464.2031" y="365.4406">Providers</text><text fill="#000000" font-family="sans-serif" font-size="21.875" lengthAdjust="spacing" textLength="334.0958" x="1464.2031" y="390.9045">(QueryClient &#183; OIDC &#183; Shelters)</text></g><!--entity Feats--><g class="entity" data-qualified-name="shelly-front.Feats" data-source-line="25" id="ent0005"><rect fill="#E0E7FF" height="123.2666" rx="3.9063" ry="3.9063" style="stroke:#4338CA;stroke-width:0.7813;" width="351.1047" x="1451.0156" y="505.4482"/><rect fill="#E0E7FF" height="15.625" style="stroke:#4338CA;stroke-width:0.7813;" width="23.4375" x="1770.8704" y="513.2607"/><rect fill="#E0E7FF" height="3.125" style="stroke:#4338CA;stroke-width:0.7813;" width="6.25" x="1767.7454" y="516.3857"/><rect fill="#E0E7FF" height="3.125" style="stroke:#4338CA;stroke-width:0.7813;" width="6.25" x="1767.7454" y="522.6357"/><text fill="#000000" font-family="sans-serif" font-size="21.875" lengthAdjust="spacing" textLength="95.7352" x="1474.4531" y="557.0031">Features</text><text fill="#000000" font-family="sans-serif" font-size="21.875" lengthAdjust="spacing" textLength="288.6047" x="1474.4531" y="582.467">(pets &#183; shelters &#183; members</text><text fill="#000000" font-family="sans-serif" font-size="21.875" lengthAdjust="spacing" textLength="276.0544" x="1474.4531" y="607.9308">requests &#183; auth &#183; landing)</text></g><!--entity ApiC--><g class="entity" data-qualified-name="shelly-front.ApiC" data-source-line="26" id="ent0006"><rect fill="#E0E7FF" height="97.8027" rx="3.9063" ry="3.9063" style="stroke:#4338CA;stroke-width:0.7813;" width="291.8671" x="1460.3125" y="722.4639"/><rect fill="#E0E7FF" height="15.625" style="stroke:#4338CA;stroke-width:0.7813;" width="23.4375" x="1720.9296" y="730.2764"/><rect fill="#E0E7FF" height="3.125" style="stroke:#4338CA;stroke-width:0.7813;" width="6.25" x="1717.8046" y="733.4014"/><rect fill="#E0E7FF" height="3.125" style="stroke:#4338CA;stroke-width:0.7813;" width="6.25" x="1717.8046" y="739.6514"/><text fill="#000000" font-family="sans-serif" font-size="21.875" lengthAdjust="spacing" textLength="101.3428" x="1483.75" y="774.0187">api-client</text><text fill="#000000" font-family="sans-serif" font-size="21.875" lengthAdjust="spacing" textLength="229.3671" x="1483.75" y="799.4826">(Axios + interceptor)</text></g><!--entity App--><g class="entity" data-qualified-name="shelly-back.App" data-source-line="34" id="ent0011"><rect fill="#E0E7FF" height="72.3389" rx="3.9063" ry="3.9063" style="stroke:#4338CA;stroke-width:0.7813;" width="198.0865" x="1007.2031" y="1098.3857"/><rect fill="#E0E7FF" height="15.625" style="stroke:#4338CA;stroke-width:0.7813;" width="23.4375" x="1174.0397" y="1106.1982"/><rect fill="#E0E7FF" height="3.125" style="stroke:#4338CA;stroke-width:0.7813;" width="6.25" x="1170.9147" y="1109.3232"/><rect fill="#E0E7FF" height="3.125" style="stroke:#4338CA;stroke-width:0.7813;" width="6.25" x="1170.9147" y="1115.5732"/><text fill="#000000" font-family="sans-serif" font-size="21.875" lengthAdjust="spacing" textLength="135.5865" x="1030.6406" y="1149.9406">Express App</text></g><!--entity Auth--><g class="entity" data-qualified-name="shelly-back.Auth" data-source-line="35" id="ent0012"><rect fill="#E0E7FF" height="97.8027" rx="3.9063" ry="3.9063" style="stroke:#4338CA;stroke-width:0.7813;" width="238.2156" x="840.2656" y="1264.4795"/><rect fill="#E0E7FF" height="15.625" style="stroke:#4338CA;stroke-width:0.7813;" width="23.4375" x="1047.2313" y="1272.292"/><rect fill="#E0E7FF" height="3.125" style="stroke:#4338CA;stroke-width:0.7813;" width="6.25" x="1044.1063" y="1275.417"/><rect fill="#E0E7FF" height="3.125" style="stroke:#4338CA;stroke-width:0.7813;" width="6.25" x="1044.1063" y="1281.667"/><text fill="#000000" font-family="sans-serif" font-size="21.875" lengthAdjust="spacing" textLength="175.7156" x="863.7031" y="1316.0344">authMiddleware</text><text fill="#000000" font-family="sans-serif" font-size="21.875" lengthAdjust="spacing" textLength="170.2148" x="863.7031" y="1341.4982">(aws-jwt-verify)</text></g><!--entity Perm--><g class="entity" data-qualified-name="shelly-back.Perm" data-source-line="36" id="ent0013"><rect fill="#E0E7FF" height="97.8027" rx="3.9063" ry="3.9063" style="stroke:#4338CA;stroke-width:0.7813;" width="260.379" x="829.1875" y="1456.0264"/><rect fill="#E0E7FF" height="15.625" style="stroke:#4338CA;stroke-width:0.7813;" width="23.4375" x="1058.3165" y="1463.8389"/><rect fill="#E0E7FF" height="3.125" style="stroke:#4338CA;stroke-width:0.7813;" width="6.25" x="1055.1915" y="1466.9639"/><rect fill="#E0E7FF" height="3.125" style="stroke:#4338CA;stroke-width:0.7813;" width="6.25" x="1055.1915" y="1473.2139"/><text fill="#000000" font-family="sans-serif" font-size="21.875" lengthAdjust="spacing" textLength="197.879" x="852.625" y="1507.5812">requirePermission</text><text fill="#000000" font-family="sans-serif" font-size="21.875" lengthAdjust="spacing" textLength="77.5131" x="852.625" y="1533.0451">(RBAC)</text></g><!--entity MU--><g class="entity" data-qualified-name="shelly-back.MU" data-source-line="37" id="ent0014"><rect fill="#E0E7FF" height="72.3389" rx="3.9063" ry="3.9063" style="stroke:#4338CA;stroke-width:0.7813;" width="210.5408" x="1746.2969" y="1277.2139"/><rect fill="#E0E7FF" height="15.625" style="stroke:#4338CA;stroke-width:0.7813;" width="23.4375" x="1925.5876" y="1285.0264"/><rect fill="#E0E7FF" height="3.125" style="stroke:#4338CA;stroke-width:0.7813;" width="6.25" x="1922.4626" y="1288.1514"/><rect fill="#E0E7FF" height="3.125" style="stroke:#4338CA;stroke-width:0.7813;" width="6.25" x="1922.4626" y="1294.4014"/><text fill="#000000" font-family="sans-serif" font-size="21.875" lengthAdjust="spacing" textLength="148.0408" x="1769.7344" y="1328.7687">users module</text></g><!--entity MS--><g class="entity" data-qualified-name="shelly-back.MS" data-source-line="38" id="ent0015"><rect fill="#E0E7FF" height="72.3389" rx="3.9063" ry="3.9063" style="stroke:#4338CA;stroke-width:0.7813;" width="238.6536" x="293.1719" y="1277.2139"/><rect fill="#E0E7FF" height="15.625" style="stroke:#4338CA;stroke-width:0.7813;" width="23.4375" x="500.5754" y="1285.0264"/><rect fill="#E0E7FF" height="3.125" style="stroke:#4338CA;stroke-width:0.7813;" width="6.25" x="497.4504" y="1288.1514"/><rect fill="#E0E7FF" height="3.125" style="stroke:#4338CA;stroke-width:0.7813;" width="6.25" x="497.4504" y="1294.4014"/><text fill="#000000" font-family="sans-serif" font-size="21.875" lengthAdjust="spacing" textLength="176.1536" x="316.6094" y="1328.7687">shelters module</text></g><!--entity MP--><g class="entity" data-qualified-name="shelly-back.MP" data-source-line="39" id="ent0016"><rect fill="#E0E7FF" height="72.3389" rx="3.9063" ry="3.9063" style="stroke:#4338CA;stroke-width:0.7813;" width="198.7488" x="586.5625" y="1277.2139"/><rect fill="#E0E7FF" height="15.625" style="stroke:#4338CA;stroke-width:0.7813;" width="23.4375" x="754.0613" y="1285.0264"/><rect fill="#E0E7FF" height="3.125" style="stroke:#4338CA;stroke-width:0.7813;" width="6.25" x="750.9363" y="1288.1514"/><rect fill="#E0E7FF" height="3.125" style="stroke:#4338CA;stroke-width:0.7813;" width="6.25" x="750.9363" y="1294.4014"/><text fill="#000000" font-family="sans-serif" font-size="21.875" lengthAdjust="spacing" textLength="136.2488" x="610" y="1328.7687">pets module</text></g><!--entity MSP--><g class="entity" data-qualified-name="shelly-back.MSP" data-source-line="40" id="ent0017"><rect fill="#E0E7FF" height="72.3389" rx="3.9063" ry="3.9063" style="stroke:#4338CA;stroke-width:0.7813;" width="204.4098" x="33.7344" y="1277.2139"/><rect fill="#E0E7FF" height="15.625" style="stroke:#4338CA;stroke-width:0.7813;" width="23.4375" x="206.8942" y="1285.0264"/><rect fill="#E0E7FF" height="3.125" style="stroke:#4338CA;stroke-width:0.7813;" width="6.25" x="203.7692" y="1288.1514"/><rect fill="#E0E7FF" height="3.125" style="stroke:#4338CA;stroke-width:0.7813;" width="6.25" x="203.7692" y="1294.4014"/><text fill="#000000" font-family="sans-serif" font-size="21.875" lengthAdjust="spacing" textLength="141.9098" x="57.1719" y="1328.7687">shelters/pets</text></g><!--entity MSM--><g class="entity" data-qualified-name="shelly-back.MSM" data-source-line="41" id="ent0018"><rect fill="#E0E7FF" height="72.3389" rx="3.9063" ry="3.9063" style="stroke:#4338CA;stroke-width:0.7813;" width="260.9024" x="1430.4844" y="1277.2139"/><rect fill="#E0E7FF" height="15.625" style="stroke:#4338CA;stroke-width:0.7813;" width="23.4375" x="1660.1368" y="1285.0264"/><rect fill="#E0E7FF" height="3.125" style="stroke:#4338CA;stroke-width:0.7813;" width="6.25" x="1657.0118" y="1288.1514"/><rect fill="#E0E7FF" height="3.125" style="stroke:#4338CA;stroke-width:0.7813;" width="6.25" x="1657.0118" y="1294.4014"/><text fill="#000000" font-family="sans-serif" font-size="21.875" lengthAdjust="spacing" textLength="198.4024" x="1453.9219" y="1328.7687">shelters/members</text></g><!--entity Docs--><g class="entity" data-qualified-name="shelly-back.Docs" data-source-line="42" id="ent0019"><rect fill="#E0E7FF" height="72.3389" rx="3.9063" ry="3.9063" style="stroke:#4338CA;stroke-width:0.7813;" width="242.2745" x="1133.5469" y="1277.2139"/><rect fill="#E0E7FF" height="15.625" style="stroke:#4338CA;stroke-width:0.7813;" width="23.4375" x="1344.5714" y="1285.0264"/><rect fill="#E0E7FF" height="3.125" style="stroke:#4338CA;stroke-width:0.7813;" width="6.25" x="1341.4464" y="1288.1514"/><rect fill="#E0E7FF" height="3.125" style="stroke:#4338CA;stroke-width:0.7813;" width="6.25" x="1341.4464" y="1294.4014"/><text fill="#000000" font-family="sans-serif" font-size="21.875" lengthAdjust="spacing" textLength="179.7745" x="1156.9844" y="1328.7687">openapi (Scalar)</text></g><!--entity IRest--><g class="entity" data-qualified-name="IRest" data-source-line="54" id="ent0028"><ellipse cx="1489.0625" cy="959.3232" fill="#FFFFFF" rx="12.5" ry="12.5" style="stroke:#1F2937;stroke-width:0.7813;"/><text fill="#000000" font-family="sans-serif" font-size="21.875" lengthAdjust="spacing" textLength="103.9597" x="1437.0827" y="1006.1906">REST /api</text></g><!--entity IOidc--><g class="entity" data-qualified-name="IOidc" data-source-line="55" id="ent0029"><ellipse cx="2262.5" cy="1504.9326" fill="#FFFFFF" rx="12.5" ry="12.5" style="stroke:#1F2937;stroke-width:0.7813;"/><text fill="#000000" font-family="sans-serif" font-size="21.875" lengthAdjust="spacing" textLength="118.5074" x="2203.2463" y="1551.8">OIDC / JWT</text></g><!--entity ISql--><g class="entity" data-qualified-name="ISql" data-source-line="56" id="ent0030"><ellipse cx="2071.875" cy="1504.9326" fill="#FFFFFF" rx="12.5" ry="12.5" style="stroke:#1F2937;stroke-width:0.7813;"/><text fill="#000000" font-family="sans-serif" font-size="21.875" lengthAdjust="spacing" textLength="109.14" x="2017.305" y="1551.8">SQL (TCP)</text></g><!--entity Cog--><g class="entity" data-qualified-name="Cog" data-source-line="70" id="ent0040"><path d="M2207.6,1660.5846 C2213.3147,1649.9305 2224.0747,1647.4388 2230.6334,1659.7377 C2234.8166,1650.2147 2243.8392,1649.9151 2248.8391,1658.9359 C2257.2122,1647.2336 2265.6339,1650.7435 2271.7433,1661.2684 C2275.6968,1652.1511 2283.7898,1649.9222 2290.5003,1658.3152 C2297.6039,1647.5167 2305.8944,1646.6813 2312.6096,1658.6918 C2318.9033,1649.546 2327.4688,1650.1848 2331.8622,1660.5654 C2339.0813,1650.8007 2345.9577,1649.5013 2353.5897,1660.1253 C2360.9851,1652.8316 2368.5001,1653.6086 2373.4127,1663.0637 C2381.3638,1667.1564 2382.628,1675.2322 2374.1078,1680.0009 C2384.3778,1681.5016 2384.752,1690.5194 2379.2955,1696.8594 C2385.3209,1705.1036 2385.8603,1711.1995 2374.958,1715.506 C2381.7185,1721.0397 2382.9697,1729.3457 2373.0553,1733.0735 C2370.7214,1744.7625 2359.932,1746.7473 2351.929,1739.3478 C2345.8515,1750.553 2338.8983,1749.9621 2331.591,1740.5615 C2326.2318,1752.0734 2319.5142,1753.2495 2309.6625,1745.7408 C2304.9156,1753.8916 2296.8054,1756.5107 2290.845,1747.0364 C2284.0583,1755.2309 2274.4727,1753.6497 2270.0273,1744.2639 C2263.6005,1752.6011 2255.8449,1751.4469 2250.306,1743.2075 C2240.3956,1752.0421 2233.7118,1749.0191 2230.1411,1737.0596 C2222.7756,1748.8902 2214.2079,1745.5665 2207.5738,1736.278 C2197.0375,1731.2366 2195.973,1722.4883 2204.8937,1714.9965 C2195.1748,1711.7889 2193.0745,1706.6379 2200.4008,1698.7241 C2191.5433,1690.0856 2194.2084,1683.0868 2205.0402,1679.1041 C2195.5633,1672.5788 2196.7862,1664.3052 2207.6,1660.5846" fill="#F1F1F1" style="stroke:#181818;stroke-width:0.7813;"/><text fill="#000000" font-family="sans-serif" font-size="21.875" lengthAdjust="spacing" textLength="141.8777" x="2218.125" y="1691.3312">AWS Cognito</text><text fill="#000000" font-family="sans-serif" font-size="21.875" lengthAdjust="spacing" textLength="119.9173" x="2218.125" y="1716.7951">(User Pool)</text></g><!--entity PG--><g class="entity" data-qualified-name="PG" data-source-line="71" id="ent0041"><path d="M1947.6406,1676.7139 C1947.6406,1661.0889 2043.7481,1661.0889 2043.7481,1661.0889 C2043.7481,1661.0889 2139.8556,1661.0889 2139.8556,1676.7139 L2139.8556,1716.2402 C2139.8556,1731.8652 2043.7481,1731.8652 2043.7481,1731.8652 C2043.7481,1731.8652 1947.6406,1731.8652 1947.6406,1716.2402 L1947.6406,1676.7139" fill="#F1F1F1" style="stroke:#181818;stroke-width:0.7813;"/><path d="M1947.6406,1676.7139 C1947.6406,1692.3389 2043.7481,1692.3389 2043.7481,1692.3389 C2043.7481,1692.3389 2139.8556,1692.3389 2139.8556,1676.7139" fill="none" style="stroke:#181818;stroke-width:0.7813;"/><text fill="#000000" font-family="sans-serif" font-size="21.875" lengthAdjust="spacing" textLength="160.965" x="1963.2656" y="1718.8937">PostgreSQL 18</text></g><!--link Router to Prov--><g class="link" data-entity-1="ent0003" data-entity-2="ent0004" data-link-type="dependency" data-source-line="28" id="lnk7"><path d="M1639.0625,220.8389 C1639.0625,249.1826 1639.0625,275.5732 1639.0625,303.9014" fill="none" id="Router-to-Prov" style="stroke:#181818;stroke-width:1.5625;"/><polygon fill="#181818" points="1639.0625,313.2764,1645.3125,299.2139,1639.0625,305.4639,1632.8125,299.2139,1639.0625,313.2764" style="stroke:#181818;stroke-width:1.5625;"/></g><!--link Prov to Feats--><g class="link" data-entity-1="ent0004" data-entity-2="ent0005" data-link-type="dependency" data-source-line="29" id="lnk8"><path d="M1636.0937,412.0264 C1634.375,439.917 1632.7349,466.0286 1630.8912,495.8411" fill="none" id="Prov-to-Feats" style="stroke:#181818;stroke-width:1.5625;"/><polygon fill="#181818" points="1630.3125,505.1982,1637.4186,491.5484,1630.7947,497.4006,1624.9425,490.7768,1630.3125,505.1982" style="stroke:#181818;stroke-width:1.5625;"/></g><!--link Feats to ApiC--><g class="link" data-entity-1="ent0005" data-entity-2="ent0006" data-link-type="dependency" data-source-line="30" id="lnk9"><path d="M1620.4687,628.9951 C1617.4531,658.8545 1614.8,685.0424 1611.9875,712.933" fill="none" id="Feats-to-ApiC" style="stroke:#181818;stroke-width:1.5625;"/><polygon fill="#181818" points="1611.0469,722.2607,1618.6762,708.8963,1611.8307,714.4877,1606.2393,707.6421,1611.0469,722.2607" style="stroke:#181818;stroke-width:1.5625;"/></g><!--link App to Auth--><g class="link" data-entity-1="ent0011" data-entity-2="ent0012" data-link-type="dependency" data-source-line="44" id="lnk20"><path d="M1076.875,1171.2451 C1054.6094,1197.8857 1029.7779,1227.5987 1005.2779,1256.9112" fill="none" id="App-to-Auth" style="stroke:#181818;stroke-width:1.5625;"/><polygon fill="#181818" points="999.2656,1264.1045,1013.0796,1257.3228,1004.2759,1258.1101,1003.4885,1249.3064,999.2656,1264.1045" style="stroke:#181818;stroke-width:1.5625;"/></g><!--link Auth to Perm--><g class="link" data-entity-1="ent0012" data-entity-2="ent0013" data-link-type="dependency" data-source-line="45" id="lnk21"><path d="M959.375,1362.9795 C959.375,1391.3232 959.375,1417.7139 959.375,1446.042" fill="none" id="Auth-to-Perm" style="stroke:#181818;stroke-width:1.5625;"/><polygon fill="#181818" points="959.375,1455.417,965.625,1441.3545,959.375,1447.6045,953.125,1441.3545,959.375,1455.417" style="stroke:#181818;stroke-width:1.5625;"/></g><!--link App to MU--><g class="link" data-entity-1="ent0011" data-entity-2="ent0014" data-link-type="dependency" data-source-line="46" id="lnk22"><path d="M1205.9063,1152.7139 C1327.9531,1173.9951 1540.4375,1214.2607 1718.75,1264.4795 C1731.4688,1268.0576 1735.8447,1269.2677 1748.8604,1273.6271" fill="none" id="App-to-MU" style="stroke:#181818;stroke-width:1.5625;"/><polygon fill="#181818" points="1757.75,1276.6045,1746.4005,1266.2119,1750.342,1274.1233,1742.4306,1278.0648,1757.75,1276.6045" style="stroke:#181818;stroke-width:1.5625;"/></g><!--link App to MS--><g class="link" data-entity-1="ent0011" data-entity-2="ent0015" data-link-type="dependency" data-source-line="47" id="lnk23"><path d="M1006.8438,1156.9014 C896.7813,1180.5107 714.4063,1221.3701 559.375,1264.4795 C546.0781,1268.167 541.1446,1269.5242 527.4415,1273.7585" fill="none" id="App-to-MS" style="stroke:#181818;stroke-width:1.5625;"/><polygon fill="#181818" points="518.4844,1276.5264,533.7653,1278.346,525.9486,1274.2199,530.0748,1266.4032,518.4844,1276.5264" style="stroke:#181818;stroke-width:1.5625;"/></g><!--link App to MP--><g class="link" data-entity-1="ent0011" data-entity-2="ent0016" data-link-type="dependency" data-source-line="48" id="lnk24"><path d="M1021.7031,1171.4639 C948.5781,1202.0264 852.0713,1242.3632 779.0088,1272.9101" fill="none" id="App-to-MP" style="stroke:#181818;stroke-width:1.5625;"/><polygon fill="#181818" points="770.3594,1276.5264,785.7444,1276.8683,777.5673,1273.5128,780.9227,1265.3356,770.3594,1276.5264" style="stroke:#181818;stroke-width:1.5625;"/></g><!--link App to MSP--><g class="link" data-entity-1="ent0011" data-entity-2="ent0017" data-link-type="dependency" data-source-line="49" id="lnk25"><path d="M1006.6094,1144.8701 C847.9219,1160.2451 528.7813,1197.0732 265.625,1264.4795 C252.3906,1267.8701 247.5075,1269.0901 234.0856,1273.6214" fill="none" id="App-to-MSP" style="stroke:#181818;stroke-width:1.5625;"/><polygon fill="#181818" points="225.2031,1276.6201,240.526,1278.0437,232.6052,1274.1212,236.5277,1266.2004,225.2031,1276.6201" style="stroke:#181818;stroke-width:1.5625;"/></g><!--link App to MSM--><g class="link" data-entity-1="ent0011" data-entity-2="ent0018" data-link-type="dependency" data-source-line="50" id="lnk26"><path d="M1197.7188,1171.4639 C1276.8125,1202.0264 1381.8175,1242.6007 1460.88,1273.1476" fill="none" id="App-to-MSM" style="stroke:#181818;stroke-width:1.5625;"/><polygon fill="#181818" points="1469.625,1276.5264,1458.76,1265.6283,1462.3375,1273.7107,1454.255,1277.2882,1469.625,1276.5264" style="stroke:#181818;stroke-width:1.5625;"/></g><!--link App to Docs--><g class="link" data-entity-1="ent0011" data-entity-2="ent0019" data-link-type="dependency" data-source-line="51" id="lnk27"><path d="M1135.9375,1171.2451 C1161.8281,1201.9014 1193.137,1238.9589 1219.012,1269.5839" fill="none" id="App-to-Docs" style="stroke:#181818;stroke-width:1.5625;"/><polygon fill="#181818" points="1225.0625,1276.7451,1220.7609,1261.9697,1220.0204,1270.7775,1211.2127,1270.037,1225.0625,1276.7451" style="stroke:#181818;stroke-width:1.5625;"/></g><!--link ApiC to IRest--><g class="link" data-entity-1="ent0006" data-entity-2="ent0028" data-source-line="58" id="lnk31"><path d="M1575.7656,821.0107 C1549.1875,862.9326 1520.8542,907.6291 1505.1042,932.4572" fill="none" id="ApiC-to-IRest" style="stroke:#181818;stroke-width:1.5625;"/><path d="M1510.4694,948.6686 A14.0625,14.0625 0 0 0 1488.1522 934.5114" fill="none" style="stroke:#181818;stroke-width:2.3438;"/></g><!--reverse link IRest to App--><g class="link" data-entity-1="ent0028" data-entity-2="ent0011" data-source-line="59" id="lnk32"><path d="M1461.188,973.4211 C1415.3755,994.0304 1278.7188,1055.4639 1184.6094,1097.7607" fill="none" id="IRest-backto-App" style="stroke:#181818;stroke-width:1.5625;"/><path d="M1465.6299,956.9328 A14.0625,14.0625 0 0 0 1476.4726 981.0351" fill="none" style="stroke:#181818;stroke-width:2.3438;"/></g><!--link Prov to IOidc--><g class="link" data-entity-1="ent0004" data-entity-2="ent0029" data-source-line="61" id="lnk33"><path d="M1790.9844,412.3857 C1941.5937,470.6201 2150,584.6514 2150,769.792 C2150,769.792 2150,769.792 2150,1136.1201 C2150,1281.4951 2224.2385,1431.795 2248.4572,1477.3107" fill="none" id="Prov-to-IOidc" style="stroke:#181818;stroke-width:1.5625;stroke-dasharray:10.9375,10.9375;"/><path d="M2265.2034,1480.6512 A14.0625,14.0625 0 0 0 2241.8718 1493.0658" fill="none" style="stroke:#181818;stroke-width:2.3438;"/></g><!--link Auth to IOidc--><g class="link" data-entity-1="ent0012" data-entity-2="ent0029" data-source-line="62" id="lnk34"><path d="M1079.0313,1355.917 C1088.1719,1358.3076 1097.3281,1360.4639 1106.25,1362.2764 C1569.5,1456.1982 1710.25,1329.3232 2165.625,1456.0264 C2197,1464.7607 2217.1439,1475.3604 2235.3627,1486.4698" fill="none" id="Auth-to-IOidc" style="stroke:#181818;stroke-width:1.5625;stroke-dasharray:10.9375,10.9375;"/><path d="M2251.4764,1480.8182 A14.0625,14.0625 0 0 0 2237.717 1503.3828" fill="none" style="stroke:#181818;stroke-width:2.3438;"/></g><!--link MU to ISql--><g class="link" data-entity-1="ent0014" data-entity-2="ent0030" data-source-line="64" id="lnk35"><path d="M1892.4844,1349.9482 C1942.7656,1392.9326 2013.5192,1453.4452 2046.1286,1481.3515" fill="none" id="MU-to-ISql" style="stroke:#181818;stroke-width:1.5625;"/><path d="M2062.9377,1478.3436 A14.0625,14.0625 0 0 0 2045.7539 1498.4235" fill="none" style="stroke:#181818;stroke-width:2.3438;"/></g><!--link MS to ISql--><g class="link" data-entity-1="ent0015" data-entity-2="ent0030" data-source-line="65" id="lnk36"><path d="M510.7812,1350.2764 C526.8594,1354.9951 543.4531,1359.2451 559.375,1362.2764 C1181.4375,1481.1514 1371.4844,1284.9014 1981.25,1456.0264 C2010.2969,1464.1826 2027.6863,1473.7899 2044.8582,1485.1024" fill="none" id="MS-to-ISql" style="stroke:#181818;stroke-width:1.5625;"/><path d="M2061.1595,1480.0172 A14.0625,14.0625 0 0 0 2046.6201 1502.0874" fill="none" style="stroke:#181818;stroke-width:2.3438;"/></g><!--link MP to ISql--><g class="link" data-entity-1="ent0016" data-entity-2="ent0030" data-source-line="66" id="lnk37"><path d="M770.7344,1350.3232 C784.5156,1354.9951 798.7656,1359.2295 812.5,1362.2764 C1321.1719,1475.4795 1480.5313,1311.667 1981.25,1456.0264 C2010.25,1464.3857 2027.6086,1473.9775 2044.7961,1485.2119" fill="none" id="MP-to-ISql" style="stroke:#181818;stroke-width:1.5625;"/><path d="M2061.079,1480.0681 A14.0625,14.0625 0 0 0 2046.6191 1502.1904" fill="none" style="stroke:#181818;stroke-width:2.3438;"/></g><!--link MSP to ISql--><g class="link" data-entity-1="ent0017" data-entity-2="ent0030" data-source-line="67" id="lnk38"><path d="M221.4062,1350.1514 C235.9531,1354.9795 251.0625,1359.292 265.625,1362.2764 C1013.6875,1515.7139 1244.875,1253.8232 1981.25,1456.0264 C2010.3437,1464.0264 2027.7375,1473.6503 2044.8938,1485.0097" fill="none" id="MSP-to-ISql" style="stroke:#181818;stroke-width:1.5625;"/><path d="M2061.2069,1479.9623 A14.0625,14.0625 0 0 0 2046.6163 1501.9987" fill="none" style="stroke:#181818;stroke-width:2.3438;"/></g><!--link MSM to ISql--><g class="link" data-entity-1="ent0018" data-entity-2="ent0030" data-source-line="68" id="lnk39"><path d="M1672.4844,1350.1826 C1776.9063,1383.5889 1925.0313,1432.0889 1981.25,1456.0264 C2009.3438,1467.9951 2027.0461,1477.4604 2044.5305,1487.5072" fill="none" id="MSM-to-ISql" style="stroke:#181818;stroke-width:1.5625;"/><path d="M2060.4917,1481.4382 A14.0625,14.0625 0 0 0 2047.3242 1504.3533" fill="none" style="stroke:#181818;stroke-width:2.3438;"/></g><!--reverse link IOidc to Cog--><g class="link" data-entity-1="ent0029" data-entity-2="ent0040" data-source-line="73" id="lnk42"><path d="M2266.4266,1534.3271 C2270.0203,1559.874 2276.2656,1604.1982 2282.3125,1647.0107" fill="none" id="IOidc-backto-Cog" style="stroke:#181818;stroke-width:1.5625;"/><path d="M2251.8344,1525.458 A14.0625,14.0625 0 0 0 2278.0056 1521.7765" fill="none" style="stroke:#181818;stroke-width:2.3438;"/></g><!--reverse link ISql to PG--><g class="link" data-entity-1="ent0030" data-entity-2="ent0041" data-source-line="74" id="lnk43"><path d="M2067.7213,1534.3078 C2063.487,1562.6359 2055.2813,1617.6357 2048.9063,1660.3389" fill="none" id="ISql-backto-PG" style="stroke:#181818;stroke-width:1.5625;"/><path d="M2056.251,1521.6578 A14.0625,14.0625 0 0 0 2082.3895 1525.5648" fill="none" style="stroke:#181818;stroke-width:2.3438;"/></g><?plantuml-src TPHVJzim4C3V_IbEtKlH54hBjeA4a4fe9oOYGaF52ozkuXOFDpQsGwccVQwzxvFjRASqOQKFTSvtzxk_YULMCBZaTAdfYaB189Sh9KjMMcQWEqkkOG0H22a4Lr913upCdvWz8CGyyL9HT8D2SUX_FMhSl44okq5-jHA3XjOyqaAkURc41HM64MAHR2NCfRKISLopt79PxWF2Bm9mGVEdfPPLMSHII0sVnaVZuMJYD58NJDUtNuwFJ-8H-TtWAFIaIxQVCXbFJkFZzvHH_zlWQ8Yt4xcjPov5qS9oR9TUqFmZiF-z1_SdWzFZ8NB8DgkEUMH2RAA5nb0TpzeLtXafDPKL1deepyuqexcDj9UZ0hlsCZm_xm0r46pQhgcMBnmZcuUoUrinlOa5Tug_V-3cwZ9sPuQXqSySU8XpQ2CcZDfACqTGp1hdOceNzxnYgxddQ_PSCHCCQ6KVtIbeMU2u0zg1J9jD5Ozodn7IHwzS6lWSUfepPQKEZYF5OuAEeK28elDjckxmyfRjJt_ZdVQqU8xoVnqUlogiq4LITKJrBb4iAE558TYQQeR9qhM9VgvjzC8qNspgFD6exUPwWakTChtYnk1ce-VqOXJNlSRhjdrbN5TNigW4yoR9h6tmrlccJTQsyLDgwjFzZ9uph0aVcTJJhQsIjfLKhCG9GZVBgQ3ri2vbRjomi8LX3g4fxWYJ2qLlrRx0Do5h2cbBqvQIXkGZugHtxs9dEixke8Uv-PIkfhYNJRLV_HxykByB-XjUv4rzTdiDtRiu3HLTPS-24BTFW2_SkeowDT7_mq6uz3j3_48U7dPhfgzw9v9aXXbt0p796izfyxub93k1v49M1NuFxZE8vRBaLk8-pN1d89LIX6nHGGfgwPmQh2ILnYurSmNrJyBIVIV4PuE9HzxQiRs0gdy0?></g></svg>