<?plantuml 1.2026.1?><svg xmlns="http://www.w3.org/2000/svg" xmlns:xlink="http://www.w3.org/1999/xlink" contentStyleType="text/css" data-diagram-type="DESCRIPTION" height="1004.6875px" preserveAspectRatio="none" style="width:1598px;height:1004px;background:#FFFFFF;" version="1.1" viewBox="0 0 1598 1004" width="1598.4375px" zoomAndPan="magnify"><title>Diagrama de despliegue (UML 2 - nodes &amp; artifacts)</title><defs/><g><g class="title" data-source-line="1"><text fill="#000000" font-family="sans-serif" font-size="21.875" font-weight="bold" lengthAdjust="spacing" textLength="640.8585" x="467.852" y="35.9299">Diagrama de despliegue (UML 2 - nodes &amp; artifacts)</text></g><!--cluster Dispositivo del usuario--><g class="cluster" data-qualified-name="Dispositivo del usuario" data-source-line="23" id="ent0002"><polygon fill="#FEF9C3" points="370.3125,83.2764,385.9375,67.6514,843.75,67.6514,843.75,251.3857,828.125,267.0107,370.3125,267.0107,370.3125,83.2764" style="stroke:#A16207;stroke-width:1.5625;"/><line style="stroke:#A16207;stroke-width:1.5625;" x1="828.125" x2="843.75" y1="83.2764" y2="67.6514"/><line style="stroke:#A16207;stroke-width:1.5625;" x1="370.3125" x2="828.125" y1="83.2764" y2="83.2764"/><line style="stroke:#A16207;stroke-width:1.5625;" x1="828.125" x2="828.125" y1="83.2764" y2="267.0107"/><text fill="#000000" font-family="sans-serif" font-size="21.875" font-weight="bold" lengthAdjust="spacing" textLength="108.3176" x="546.6225" y="108.2687">&#171;device&#187;</text><text fill="#000000" font-family="sans-serif" font-size="21.875" font-weight="bold" lengthAdjust="spacing" textLength="282.5912" x="459.4856" y="133.7326">Dispositivo del usuario</text></g><!--cluster CDN / Static Hosting\n(S3 + CloudFront ? Vercel ? Netlify)--><g class="cluster" data-qualified-name="CDN . Static Hosting.n.S3 . CloudFront . Vercel . Netlify." data-source-line="28" id="ent0005"><polygon fill="#FEF9C3" points="25,435.542,40.625,419.917,571.875,419.917,571.875,628.6514,556.25,644.2764,25,644.2764,25,435.542" style="stroke:#A16207;stroke-width:1.5625;"/><line style="stroke:#A16207;stroke-width:1.5625;" x1="556.25" x2="571.875" y1="435.542" y2="419.917"/><line style="stroke:#A16207;stroke-width:1.5625;" x1="25" x2="556.25" y1="435.542" y2="435.542"/><line style="stroke:#A16207;stroke-width:1.5625;" x1="556.25" x2="556.25" y1="435.542" y2="644.2764"/><text fill="#000000" font-family="sans-serif" font-size="21.875" font-weight="bold" lengthAdjust="spacing" textLength="108.3176" x="238.0287" y="460.5344">&#171;device&#187;</text><text fill="#000000" font-family="sans-serif" font-size="21.875" font-weight="bold" lengthAdjust="spacing" textLength="250.7935" x="166.7908" y="485.9982">CDN / Static Hosting</text><text fill="#000000" font-family="sans-serif" font-size="21.875" font-weight="bold" lengthAdjust="spacing" textLength="428.4424" x="77.9663" y="511.4621">(S3 + CloudFront &#183; Vercel &#183; Netlify)</text></g><!--cluster AWS ? Auth as a Service--><g class="cluster" data-qualified-name="AWS . Auth as a Service" data-source-line="32" id="ent0007"><path d="M638.1011,405.682 C648.2338,390.9107 658.5784,390.4479 670.9802,402.9462 C679.8398,392.3793 693.6824,393.9701 699.0266,407.1059 C706.758,390.9117 722.3268,390.1162 730.9137,406.2624 C739.9267,388.8033 752.3837,391.8656 762.7132,404.889 C771.3465,388.5101 782.71,386.8945 794.8712,401.1907 C804.7695,385.8196 821.3195,385.7718 828.5722,403.8558 C837.6165,387.4409 853.8473,388.9628 861.8155,404.9595 C874.2675,386.4233 885.0668,386.641 897.5156,404.9626 C905.9229,389.0612 920.2909,388.3658 928.9806,404.6869 C937.9672,389.4597 949.5702,394.1254 957.4168,405.888 C970.0572,391.4779 981.0873,392.6655 992.2753,407.6126 C1000.9403,389.8374 1013.9327,388.9302 1024.6165,405.7239 C1032.6683,392.6961 1048.2257,389.0053 1056.1073,405.9029 C1071.7899,389.5465 1089.2021,389.3377 1096.875,413.8857 C1101.6331,413.1004 1103.3555,415.7301 1102.199,420.0517 C1119.5257,428.9003 1119.1352,441.33 1104.9327,452.8097 C1128.3935,459.2781 1130.6796,479.0421 1112.326,493.1701 C1129.9304,505.9789 1130.8012,518.4004 1114.0361,532.6962 C1133.8748,548.4203 1130.7077,564.2437 1107.6267,573.1713 C1127.7644,584.4174 1125.0365,599.8476 1107.7085,611.1743 C1122.5747,636.501 1117.7272,653.6046 1085.9375,656.542 C1089.0798,654.6459 1091.2319,656.1058 1091.1365,659.6411 C1081.2554,678.0065 1065.1049,677.8302 1055.8795,659.0193 C1046.7738,673.5209 1035.6691,671.942 1026.1779,659.4434 C1018.0087,675.3752 1003.8659,674.5678 993.3975,662.0969 C984.1733,679.5198 970.8065,681.7181 958.0868,665.7986 C948.7335,683.414 933.9612,684.1071 924.5811,665.8237 C915.1132,680.7075 905.7158,678.1821 896.3145,665.7548 C885.2639,678.7743 871.4256,677.9539 863.196,662.4764 C855.4901,677.0079 840.4124,681.2752 829.6375,665.9229 C818.1558,677.765 807.006,677.9131 799.8515,661.3805 C792.8925,680.0204 777.2292,681.8498 766.5438,664.8645 C754.7446,678.2812 739.0558,678.483 731.5299,660.1516 C724.4508,676.1576 708.7407,679.0624 699.5446,662.2125 C691.9043,676.7418 677.6011,675.8172 669.6459,662.5512 C645.5956,677.6779 629.7966,675.9429 621.875,645.6045 C625.9303,645.4972 626.9713,647.4961 626.1453,651.1485 C601.2128,642.2685 602.0801,626.9593 617.456,609.641 C596.4255,600.0034 591.9897,583.0531 612.8291,568.6854 C597.2132,560.4284 594.6039,548.2569 608.1317,535.8329 C591.2578,520.2906 593.5899,506.753 613.9244,496.7215 C598.2977,479.7605 594.7184,463.8263 620.3124,452.87 C601.8242,430.659 604.7405,413.5009 632.8125,402.9482 C635.6318,400.9178 637.8971,402.6532 638.1011,405.682" fill="#FDE68A" style="stroke:#B45309;stroke-width:1.5625;"/><text fill="#000000" font-family="sans-serif" font-size="21.875" font-weight="bold" lengthAdjust="spacing" textLength="295.2164" x="711.7668" y="431.0656">AWS &#183; Auth as a Service</text></g><!--cluster Cognito--><g class="cluster" data-qualified-name="AWS . Auth as a Service.Cognito" data-source-line="33" id="ent0008"><polygon fill="#FEF9C3" points="646.875,473.2607,662.5,457.6357,1071.875,457.6357,1071.875,615.917,1056.25,631.542,646.875,631.542,646.875,473.2607" style="stroke:#A16207;stroke-width:1.5625;"/><line style="stroke:#A16207;stroke-width:1.5625;" x1="1056.25" x2="1071.875" y1="473.2607" y2="457.6357"/><line style="stroke:#A16207;stroke-width:1.5625;" x1="646.875" x2="1056.25" y1="473.2607" y2="473.2607"/><line style="stroke:#A16207;stroke-width:1.5625;" x1="1056.25" x2="1056.25" y1="473.2607" y2="631.542"/><text fill="#000000" font-family="sans-serif" font-size="21.875" font-weight="bold" lengthAdjust="spacing" textLength="306.4636" x="699.8932" y="498.2531">&#171;executionEnvironment&#187;</text><text fill="#000000" font-family="sans-serif" font-size="21.875" font-weight="bold" lengthAdjust="spacing" textLength="95.2972" x="805.4764" y="523.717">Cognito</text></g><!--cluster Servidor Node\n(PaaS ? EC2 ? Container)--><g class="cluster" data-qualified-name="Servidor Node.n.PaaS . EC2 . Container." data-source-line="38" id="ent0010"><polygon fill="#FEF9C3" points="1146.875,410.0732,1162.5,394.4482,1571.875,394.4482,1571.875,654.1201,1556.25,669.7451,1146.875,669.7451,1146.875,410.0732" style="stroke:#A16207;stroke-width:1.5625;"/><line style="stroke:#A16207;stroke-width:1.5625;" x1="1556.25" x2="1571.875" y1="410.0732" y2="394.4482"/><line style="stroke:#A16207;stroke-width:1.5625;" x1="1146.875" x2="1556.25" y1="410.0732" y2="410.0732"/><line style="stroke:#A16207;stroke-width:1.5625;" x1="1556.25" x2="1556.25" y1="410.0732" y2="669.7451"/><text fill="#000000" font-family="sans-serif" font-size="21.875" font-weight="bold" lengthAdjust="spacing" textLength="306.4636" x="1199.8932" y="435.0656">&#171;executionEnvironment&#187;</text><text fill="#000000" font-family="sans-serif" font-size="21.875" font-weight="bold" lengthAdjust="spacing" textLength="176.0574" x="1265.0963" y="460.5295">Servidor Node</text><text fill="#000000" font-family="sans-serif" font-size="21.875" font-weight="bold" lengthAdjust="spacing" textLength="295.1736" x="1205.5382" y="485.9933">(PaaS &#183; EC2 &#183; Container)</text></g><!--cluster Base de datos gestionada--><g class="cluster" data-qualified-name="Base de datos gestionada" data-source-line="42" id="ent0012"><polygon fill="#FEF9C3" points="1085.9375,785.3701,1101.5625,769.7451,1523.4375,769.7451,1523.4375,962.8545,1507.8125,978.4795,1085.9375,978.4795,1085.9375,785.3701" style="stroke:#A16207;stroke-width:1.5625;"/><line style="stroke:#A16207;stroke-width:1.5625;" x1="1507.8125" x2="1523.4375" y1="785.3701" y2="769.7451"/><line style="stroke:#A16207;stroke-width:1.5625;" x1="1085.9375" x2="1507.8125" y1="785.3701" y2="785.3701"/><line style="stroke:#A16207;stroke-width:1.5625;" x1="1507.8125" x2="1507.8125" y1="785.3701" y2="978.4795"/><text fill="#000000" font-family="sans-serif" font-size="21.875" font-weight="bold" lengthAdjust="spacing" textLength="108.3176" x="1244.2787" y="810.3625">&#171;device&#187;</text><text fill="#000000" font-family="sans-serif" font-size="21.875" font-weight="bold" lengthAdjust="spacing" textLength="318.811" x="1139.032" y="835.8264">Base de datos gestionada</text></g><!--entity Browser--><g class="entity" data-qualified-name="Dispositivo del usuario.Browser" data-source-line="24" id="ent0003"><rect fill="#E0E7FF" height="61.4014" rx="3.9063" ry="3.9063" style="stroke:#4338CA;stroke-width:0.7813;" width="166.6" x="652.6406" y="167.8857"/><polygon fill="#E0E7FF" points="792.6782,175.6982,792.6782,197.5732,811.4282,197.5732,811.4282,185.0732,802.0532,175.6982,792.6782,175.6982" style="stroke:#4338CA;stroke-width:0.7813;"/><line style="stroke:#4338CA;stroke-width:0.7813;" x1="802.0532" x2="802.0532" y1="175.6982" y2="185.0732"/><line style="stroke:#4338CA;stroke-width:0.7813;" x1="811.4282" x2="802.0532" y1="185.0732" y2="185.0732"/><text fill="#000000" font-family="sans-serif" font-size="21.875" lengthAdjust="spacing" textLength="119.725" x="668.2656" y="208.5031">Navegador</text></g><!--entity SPA--><g class="entity" data-qualified-name="Dispositivo del usuario.SPA" data-source-line="25" id="ent0004"><rect fill="#E0E7FF" height="86.8652" rx="3.9063" ry="3.9063" style="stroke:#4338CA;stroke-width:0.7813;" width="202.0615" x="395.8438" y="155.1514"/><polygon fill="#E0E7FF" points="571.3427,162.9639,571.3427,184.8389,590.0927,184.8389,590.0927,172.3389,580.7177,162.9639,571.3427,162.9639" style="stroke:#4338CA;stroke-width:0.7813;"/><line style="stroke:#4338CA;stroke-width:0.7813;" x1="580.7177" x2="580.7177" y1="162.9639" y2="172.3389"/><line style="stroke:#4338CA;stroke-width:0.7813;" x1="590.0927" x2="580.7177" y1="172.3389" y2="172.3389"/><text fill="#000000" font-family="sans-serif" font-size="21.875" lengthAdjust="spacing" textLength="111.6608" x="411.4688" y="195.7687">SPA React</text><text fill="#000000" font-family="sans-serif" font-size="21.875" lengthAdjust="spacing" textLength="155.1865" x="411.4688" y="221.2326">(build de Vite)</text></g><!--entity Static--><g class="entity" data-qualified-name="CDN . Static Hosting.n.S3 . CloudFront . Vercel . Netlify..Static" data-source-line="29" id="ent0006"><rect fill="#E0E7FF" height="86.8652" rx="3.9063" ry="3.9063" style="stroke:#4338CA;stroke-width:0.7813;" width="371.0052" x="175.4375" y="532.417"/><polygon fill="#E0E7FF" points="519.8802,540.2295,519.8802,562.1045,538.6302,562.1045,538.6302,549.6045,529.2552,540.2295,519.8802,540.2295" style="stroke:#4338CA;stroke-width:0.7813;"/><line style="stroke:#4338CA;stroke-width:0.7813;" x1="529.2552" x2="529.2552" y1="540.2295" y2="549.6045"/><line style="stroke:#4338CA;stroke-width:0.7813;" x1="538.6302" x2="529.2552" y1="549.6045" y2="549.6045"/><text fill="#000000" font-family="sans-serif" font-size="21.875" lengthAdjust="spacing" textLength="324.1302" x="191.0625" y="573.0344">index.html + assets est&#225;ticos</text><text fill="#000000" font-family="sans-serif" font-size="21.875" lengthAdjust="spacing" textLength="282.0786" x="191.0625" y="598.4982">(artefacto de shelly-front)</text></g><!--entity Cog--><g class="entity" data-qualified-name="AWS . Auth as a Service.Cognito.Cog" data-source-line="34" id="ent0009"><rect fill="#E0E7FF" height="61.4014" rx="3.9063" ry="3.9063" style="stroke:#4338CA;stroke-width:0.7813;" width="288.5254" x="708.8594" y="545.1357"/><polygon fill="#E0E7FF" points="970.8223,552.9482,970.8223,574.8232,989.5723,574.8232,989.5723,562.3232,980.1973,552.9482,970.8223,552.9482" style="stroke:#4338CA;stroke-width:0.7813;"/><line style="stroke:#4338CA;stroke-width:0.7813;" x1="980.1973" x2="980.1973" y1="552.9482" y2="562.3232"/><line style="stroke:#4338CA;stroke-width:0.7813;" x1="989.5723" x2="980.1973" y1="562.3232" y2="562.3232"/><text fill="#000000" font-family="sans-serif" font-size="21.875" lengthAdjust="spacing" textLength="241.6504" x="724.4844" y="585.7531">User Pool + Hosted UI</text></g><!--entity API--><g class="entity" data-qualified-name="Servidor Node.n.PaaS . EC2 . Container..API" data-source-line="39" id="ent0011"><rect fill="#E0E7FF" height="137.793" rx="3.9063" ry="3.9063" style="stroke:#4338CA;stroke-width:0.7813;" width="266.3834" x="1171.5" y="506.9482"/><polygon fill="#E0E7FF" points="1411.3209,514.7607,1411.3209,536.6357,1430.0709,536.6357,1430.0709,524.1357,1420.6959,514.7607,1411.3209,514.7607" style="stroke:#4338CA;stroke-width:0.7813;"/><line style="stroke:#4338CA;stroke-width:0.7813;" x1="1420.6959" x2="1420.6959" y1="514.7607" y2="524.1357"/><line style="stroke:#4338CA;stroke-width:0.7813;" x1="1430.0709" x2="1420.6959" y1="524.1357" y2="524.1357"/><text fill="#000000" font-family="sans-serif" font-size="21.875" lengthAdjust="spacing" textLength="123.6984" x="1187.125" y="547.5656">shelly-back</text><text fill="#000000" font-family="sans-serif" font-size="21.875" lengthAdjust="spacing" textLength="219.5084" x="1187.125" y="573.0295">Node 22 &#183; Express 5</text><text fill="#000000" font-family="sans-serif" font-size="21.875" lengthAdjust="spacing" textLength="188.8214" x="1187.125" y="598.4933">(/api/*, /api/docs)</text><text fill="#000000" font-family="sans-serif" font-size="21.875" lengthAdjust="spacing" textLength="134.0912" x="1187.125" y="623.9572">Puerto 3000</text></g><!--entity DB--><g class="entity" data-qualified-name="Base de datos gestionada.DB" data-source-line="43" id="ent0013"><path d="M1156.5625,872.8701 C1156.5625,857.2451 1304.6925,857.2451 1304.6925,857.2451 C1304.6925,857.2451 1452.8226,857.2451 1452.8226,872.8701 L1452.8226,937.8604 C1452.8226,953.4854 1304.6925,953.4854 1304.6925,953.4854 C1304.6925,953.4854 1156.5625,953.4854 1156.5625,937.8604 L1156.5625,872.8701" fill="#BFDBFE" style="stroke:#1D4ED8;stroke-width:0.7813;"/><path d="M1156.5625,872.8701 C1156.5625,888.4951 1304.6925,888.4951 1304.6925,888.4951 C1304.6925,888.4951 1452.8226,888.4951 1452.8226,872.8701" fill="none" style="stroke:#1D4ED8;stroke-width:0.7813;"/><text fill="#000000" font-family="sans-serif" font-size="21.875" lengthAdjust="spacing" textLength="160.965" x="1172.1875" y="915.05">PostgreSQL 18</text><text fill="#000000" font-family="sans-serif" font-size="21.875" lengthAdjust="spacing" textLength="265.0101" x="1172.1875" y="940.5139">(RDS &#183; docker-compose)</text></g><!--link Browser to Static--><g class="link" data-entity-1="ent0003" data-entity-2="ent0006" data-link-type="dependency" data-source-line="46" id="lnk14"><path d="M704.7969,229.9639 C683.9688,247.8701 654.9844,269.1201 625,279.5107 C596.75,289.3076 376.8906,270.4014 356.25,292.0107 C295.1719,356.0107 319.4668,461.2343 340.9356,522.953" fill="none" id="Browser-to-Static" style="stroke:#181818;stroke-width:1.5625;"/><polygon fill="#181818" points="344.0156,531.8076,345.2986,516.4724,341.4489,524.4288,333.4925,520.5791,344.0156,531.8076" style="stroke:#181818;stroke-width:1.5625;"/><text fill="#000000" font-family="sans-serif" font-size="20.3125" lengthAdjust="spacing" textLength="90.0871" x="357.8125" y="324.1465">&#171;HTTPS&#187;</text><text fill="#000000" font-family="sans-serif" font-size="20.3125" lengthAdjust="spacing" textLength="81.5872" x="362.0625" y="347.7915">1) GET /</text></g><!--link Static to Browser--><g class="link" data-entity-1="ent0006" data-entity-2="ent0003" data-link-type="dependency" data-source-line="47" id="lnk15"><path d="M377.0938,531.8076 C403.5625,468.4795 462.4375,350.4795 553.125,292.0107 C580.375,274.4482 595.0938,292.042 625,279.5107 C653.6094,267.5264 674.755,252.9762 695.6457,235.82" fill="none" id="Static-to-Browser" style="stroke:#181818;stroke-width:1.5625;"/><polygon fill="#181818" points="702.8906,229.8701,688.0566,233.9649,696.8531,234.8283,695.9897,243.6249,702.8906,229.8701" style="stroke:#181818;stroke-width:1.5625;"/><text fill="#000000" font-family="sans-serif" font-size="20.3125" lengthAdjust="spacing" textLength="154.744" x="554.6875" y="335.8653">bundle JS / CSS</text></g><!--link Browser to Cog--><g class="link" data-entity-1="ent0003" data-entity-2="ent0009" data-link-type="dependency" data-source-line="48" id="lnk16"><path d="M730,230.0107 C724.4688,263.6045 718.8125,319.4482 731.25,365.4482 C750.2031,435.5576 793.4656,498.8621 823.2468,537.3465" fill="none" id="Browser-to-Cog" style="stroke:#181818;stroke-width:1.5625;stroke-dasharray:10.9375,10.9375;"/><polygon fill="#181818" points="828.9844,544.7607,825.3209,529.8143,824.2031,538.5822,815.4352,537.4644,828.9844,544.7607" style="stroke:#181818;stroke-width:1.5625;"/><text fill="#000000" font-family="sans-serif" font-size="20.3125" lengthAdjust="spacing" textLength="76.6579" x="800.5241" y="324.1465">&#171;OIDC&#187;</text><text fill="#000000" font-family="sans-serif" font-size="20.3125" lengthAdjust="spacing" textLength="212.0811" x="732.8125" y="347.7915">2) redirect Hosted UI</text></g><!--link Cog to Browser--><g class="link" data-entity-1="ent0009" data-entity-2="ent0003" data-link-type="dependency" data-source-line="49" id="lnk17"><path d="M879.8594,544.4951 C924.9531,490.5264 1006.0781,374.4951 951.5625,292.0107 C922.2813,247.7139 875.9193,227.0032 828.5756,215.0813" fill="none" id="Cog-to-Browser" style="stroke:#181818;stroke-width:1.5625;stroke-dasharray:10.9375,10.9375;"/><polygon fill="#181818" points="819.4844,212.792,831.595,222.2867,827.0604,214.6997,834.6474,210.1651,819.4844,212.792" style="stroke:#181818;stroke-width:1.5625;"/><text fill="#000000" font-family="sans-serif" font-size="20.3125" lengthAdjust="spacing" textLength="147.0078" x="970.3125" y="335.8653">id_token (JWT)</text></g><!--link Browser to API--><g class="link" data-entity-1="ent0003" data-entity-2="ent0011" data-link-type="dependency" data-source-line="50" id="lnk18"><path d="M819.625,201.2607 C905.3281,206.3076 1038.7656,225.417 1131.25,292.0107 C1205.4688,345.4482 1250.8618,432.7159 1277.2836,497.7471" fill="none" id="Browser-to-API" style="stroke:#181818;stroke-width:1.5625;"/><polygon fill="#181818" points="1280.8125,506.4326,1281.3095,491.0518,1277.8718,499.1947,1269.7289,495.757,1280.8125,506.4326" style="stroke:#181818;stroke-width:1.5625;"/><text fill="#000000" font-family="sans-serif" font-size="20.3125" lengthAdjust="spacing" textLength="90.0871" x="1267.7715" y="312.4278">&#171;HTTPS&#187;</text><text fill="#000000" font-family="sans-serif" font-size="20.3125" lengthAdjust="spacing" textLength="222.5052" x="1201.5625" y="336.0728">3) REST + Bearer JWT</text><text fill="#000000" font-family="sans-serif" font-size="20.3125" lengthAdjust="spacing" textLength="186.4227" x="1219.6037" y="359.7178">VITE_APP_API_URL</text></g><!--link API to Cog--><g class="link" data-entity-1="ent0011" data-entity-2="ent0009" data-link-type="dependency" data-source-line="51" id="lnk19"><path d="M1170.7188,575.8389 C1116.3125,575.8389 1062.7031,575.8389 1007.2344,575.8389" fill="none" id="API-to-Cog" style="stroke:#181818;stroke-width:1.5625;stroke-dasharray:10.9375,10.9375;"/><polygon fill="#181818" points="997.8594,575.8389,1011.9219,582.0889,1005.6719,575.8389,1011.9219,569.5889,997.8594,575.8389" style="stroke:#181818;stroke-width:1.5625;"/><text fill="#000000" font-family="sans-serif" font-size="20.3125" lengthAdjust="spacing" textLength="77.1439" x="1046.0323" y="541.5684">&#171;JWKS&#187;</text><text fill="#000000" font-family="sans-serif" font-size="20.3125" lengthAdjust="spacing" textLength="117.5209" x="1025.8438" y="565.2134">verify firma</text></g><!--link API to DB--><g class="link" data-entity-1="ent0011" data-entity-2="ent0013" data-link-type="dependency" data-source-line="52" id="lnk20"><path d="M1304.6875,645.4326 C1304.6875,708.7607 1304.6875,792.1201 1304.6875,847.5576" fill="none" id="API-to-DB" style="stroke:#181818;stroke-width:1.5625;"/><polygon fill="#181818" points="1304.6875,856.9326,1310.9375,842.8701,1304.6875,849.1201,1298.4375,842.8701,1304.6875,856.9326" style="stroke:#181818;stroke-width:1.5625;"/><text fill="#000000" font-family="sans-serif" font-size="20.3125" lengthAdjust="spacing" textLength="107.1564" x="1331.7795" y="715.1621">&#171;TCP/TLS&#187;</text><text fill="#000000" font-family="sans-serif" font-size="20.3125" lengthAdjust="spacing" textLength="158.2153" x="1306.25" y="738.8072">SQL v&#237;a pg Pool</text></g><?plantuml-src XLFRJjj047ttLunIgS9jGsxSLKMABocXbBeum4iajB4dPeMp6-sk0wZYO_e1VUvx-R7ERWD9Q6cbHBPtPiuvSsRMS5CYH9mLYaqPv4W_FIiv5XN2njcdOsX37OIaKtWDJ1a-OPdHlkVfQovcZAeWdt5eRJTNJlGLo-KD5mLCMAbn9MAHuAi74B3ikb2o4daeIwdWLJ_kxuST6v4gHxKuxRLssirTEkrBOL9pHsB7iioz-nNCHrL_nusRyMw__nntgzFP2tjhC3apRCpq2_A2VXJqu-SmhMWhZlRMOB9ILlaBBKRnpbxlEKQmjTrfxXE6vyofHLpFfEQ6poKDeuHALqnnMOFtxtESymoxNGV_r7RjXCsn8CTL3PY6GCaRZMej8qrwS8hqEX8RuugNkPtqEJVekn8AB_d3w0GQa1fcU0Q7KXkQ8vMb7NWBeMskhsWMyFC7dAFAI22zdQ0f-UJE_uT8BdAytRmoqv9mcDPeDA0s3z-8HceYe5IqgRPhsY0ioxlwn58jD3f1LkPlXskzYzHIzofpPUCCKbIMkUQ85xt8Gd3ZlCDRp2h3fOZ5d1Fi58LPY5oLUKRMGIAbLMcRnnpE1au0OL7k_T8enqUkmmbzKWC9OqvH7BRj8oJfZ0jK_d_eb-IBhiUqE2DXKQ7jeEBRcKAjOPjO6cp66s_UWNlcCjF-I2GLAlAjqsmsdTHUCbZA3EnEsulDZDHGaEUaWkNiZrazNO1QGeqN2jClnz3Q8yxJo3L6RDUewfcSqe8kLYSABDDYvw1UxpvkpW717mw7IThjZaJBXm_n41hU8cZp7ciEO4nNX2xsKKfx5wRf4zhcPjUwxg0-3wBG8hLzK9XpXUJNqtmycsMpbvWylpJo6WLi75qC_JM1vCwwkeuFft4wf8a7o1HbKSb8d0-6yMKlIUW_k3mxFVPitQgaeukFhdoEYdOV9bnDcKko957WSePXqXWUkpJhvlpXEuDPuHRC-mK0?></g></svg>